<svg xmlns="http://www.w3.org/2000/svg" width="384" height="194" viewBox="0 0 384 194" fill="none">
  <g stroke="#2f3142" stroke-width="4" stroke-linecap="round" stroke-linejoin="round">
    <path d="M44 22c18 8 36 14 56 18 10 2 18 9 24 18l18 28c6 10 16 16 28 16h44c12 0 22-6 28-16l18-28c6-9 14-16 24-18 20-4 38-10 56-18" />
    <!-- Neck + upper torso -->
    <path d="M168 46c8-10 16-14 24-14s16 4 24 14" opacity="0.7"/>
    <!-- Arms -->
    <path d="M72 44c-18 18-28 40-26 62 2 22 10 42 24 56" opacity="0.55"/>
    <path d="M312 44c18 18 28 40 26 62-2 22-10 42-24 56" opacity="0.55"/>
  </g>

  <!-- Shoulder caps highlight -->
  <g fill="#e8001d">
    <path d="M88 52c22-4 44 4 56 20 10 12 10 26 0 36-12 12-34 10-52-6-18-16-22-38-4-50z" opacity="0.72"/>
    <path d="M296 52c-22-4-44 4-56 20-10 12-10 26 0 36 12 12 34 10 52-6 18-16 22-38 4-50z" opacity="0.72"/>
    <path d="M106 62c10 2 18 8 24 16" stroke="#ff5030" stroke-width="5" stroke-linecap="round" fill="none" opacity="0.85"/>
    <path d="M278 62c-10 2-18 8-24 16" stroke="#ff5030" stroke-width="5" stroke-linecap="round" fill="none" opacity="0.85"/>
  </g>
</svg>
